<svg width="268" height="55" viewBox="0 0 268 55" fill="none" xmlns="http://www.w3.org/2000/svg">
<path d="M5.64 18.92V27.17H16.5V29.09H5.64V38H3.42V17H17.82V18.92H5.64ZM21.6614 22.22H23.7914V38H21.6614V22.22ZM22.7414 18.77C22.3014 18.77 21.9314 18.62 21.6314 18.32C21.3314 18.02 21.1814 17.66 21.1814 17.24C21.1814 16.84 21.3314 16.49 21.6314 16.19C21.9314 15.89 22.3014 15.74 22.7414 15.74C23.1814 15.74 23.5514 15.89 23.8514 16.19C24.1514 16.47 24.3014 16.81 24.3014 17.21C24.3014 17.65 24.1514 18.02 23.8514 18.32C23.5514 18.62 23.1814 18.77 22.7414 18.77ZM37.758 22.1C39.738 22.1 41.308 22.68 42.468 23.84C43.648 24.98 44.238 26.65 44.238 28.85V38H42.108V29.06C42.108 27.42 41.698 26.17 40.878 25.31C40.058 24.45 38.888 24.02 37.368 24.02C35.668 24.02 34.318 24.53 33.318 25.55C32.338 26.55 31.848 27.94 31.848 29.72V38H29.718V22.22H31.758V25.13C32.338 24.17 33.138 23.43 34.158 22.91C35.198 22.37 36.398 22.1 37.758 22.1ZM55.5408 22.1C57.6008 22.1 59.1808 22.62 60.2808 23.66C61.3808 24.68 61.9308 26.2 61.9308 28.22V38H59.8908V35.54C59.4108 36.36 58.7008 37 57.7608 37.46C56.8408 37.92 55.7408 38.15 54.4608 38.15C52.7008 38.15 51.3008 37.73 50.2608 36.89C49.2208 36.05 48.7008 34.94 48.7008 33.56C48.7008 32.22 49.1808 31.14 50.1408 30.32C51.1208 29.5 52.6708 29.09 54.7908 29.09H59.8008V28.13C59.8008 26.77 59.4208 25.74 58.6608 25.04C57.9008 24.32 56.7908 23.96 55.3308 23.96C54.3308 23.96 53.3708 24.13 52.4508 24.47C51.5308 24.79 50.7408 25.24 50.0808 25.82L49.1208 24.23C49.9208 23.55 50.8808 23.03 52.0008 22.67C53.1208 22.29 54.3008 22.1 55.5408 22.1ZM54.7908 36.47C55.9908 36.47 57.0208 36.2 57.8808 35.66C58.7408 35.1 59.3808 34.3 59.8008 33.26V30.68H54.8508C52.1508 30.68 50.8008 31.62 50.8008 33.5C50.8008 34.42 51.1508 35.15 51.8508 35.69C52.5508 36.21 53.5308 36.47 54.7908 36.47ZM75.7561 22.1C77.7361 22.1 79.3061 22.68 80.4661 23.84C81.6461 24.98 82.2361 26.65 82.2361 28.85V38H80.1061V29.06C80.1061 27.42 79.6961 26.17 78.8761 25.31C78.0561 24.45 76.8861 24.02 75.3661 24.02C73.6661 24.02 72.3161 24.53 71.3161 25.55C70.3361 26.55 69.8461 27.94 69.8461 29.72V38H67.7161V22.22H69.7561V25.13C70.3361 24.17 71.1361 23.43 72.1561 22.91C73.1961 22.37 74.3961 22.1 75.7561 22.1ZM99.1488 36.23V38H86.3088V36.59L96.2388 24.02H86.4888V22.22H98.9688V23.63L89.0388 36.23H99.1488ZM108.861 22.1C110.921 22.1 112.501 22.62 113.601 23.66C114.701 24.68 115.251 26.2 115.251 28.22V38H113.211V35.54C112.731 36.36 112.021 37 111.081 37.46C110.161 37.92 109.061 38.15 107.781 38.15C106.021 38.15 104.621 37.73 103.581 36.89C102.541 36.05 102.021 34.94 102.021 33.56C102.021 32.22 102.501 31.14 103.461 30.32C104.441 29.5 105.991 29.09 108.111 29.09H113.121V28.13C113.121 26.77 112.741 25.74 111.981 25.04C111.221 24.32 110.111 23.96 108.651 23.96C107.651 23.96 106.691 24.13 105.771 24.47C104.851 24.79 104.061 25.24 103.401 25.82L102.441 24.23C103.241 23.55 104.201 23.03 105.321 22.67C106.441 22.29 107.621 22.1 108.861 22.1ZM108.111 36.47C109.311 36.47 110.341 36.2 111.201 35.66C112.061 35.1 112.701 34.3 113.121 33.26V30.68H108.171C105.471 30.68 104.121 31.62 104.121 33.5C104.121 34.42 104.471 35.15 105.171 35.69C105.871 36.21 106.851 36.47 108.111 36.47ZM125.266 38.15C123.986 38.15 122.756 37.97 121.576 37.61C120.416 37.23 119.506 36.76 118.846 36.2L119.806 34.52C120.466 35.04 121.296 35.47 122.296 35.81C123.296 36.13 124.336 36.29 125.416 36.29C126.856 36.29 127.916 36.07 128.596 35.63C129.296 35.17 129.646 34.53 129.646 33.71C129.646 33.13 129.456 32.68 129.076 32.36C128.696 32.02 128.216 31.77 127.636 31.61C127.056 31.43 126.286 31.26 125.326 31.1C124.046 30.86 123.016 30.62 122.236 30.38C121.456 30.12 120.786 29.69 120.226 29.09C119.686 28.49 119.416 27.66 119.416 26.6C119.416 25.28 119.966 24.2 121.066 23.36C122.166 22.52 123.696 22.1 125.656 22.1C126.676 22.1 127.696 22.24 128.716 22.52C129.736 22.78 130.576 23.13 131.236 23.57L130.306 25.28C129.006 24.38 127.456 23.93 125.656 23.93C124.296 23.93 123.266 24.17 122.566 24.65C121.886 25.13 121.546 25.76 121.546 26.54C121.546 27.14 121.736 27.62 122.116 27.98C122.516 28.34 123.006 28.61 123.586 28.79C124.166 28.95 124.966 29.12 125.986 29.3C127.246 29.54 128.256 29.78 129.016 30.02C129.776 30.26 130.426 30.67 130.966 31.25C131.506 31.83 131.776 32.63 131.776 33.65C131.776 35.03 131.196 36.13 130.036 36.95C128.896 37.75 127.306 38.15 125.266 38.15Z" fill="black"/>
<path d="M182.21 38.18C180.65 38.18 179.15 37.93 177.71 37.43C176.29 36.93 175.19 36.27 174.41 35.45L175.28 33.74C176.04 34.5 177.05 35.12 178.31 35.6C179.57 36.06 180.87 36.29 182.21 36.29C184.09 36.29 185.5 35.95 186.44 35.27C187.38 34.57 187.85 33.67 187.85 32.57C187.85 31.73 187.59 31.06 187.07 30.56C186.57 30.06 185.95 29.68 185.21 29.42C184.47 29.14 183.44 28.84 182.12 28.52C180.54 28.12 179.28 27.74 178.34 27.38C177.4 27 176.59 26.43 175.91 25.67C175.25 24.91 174.92 23.88 174.92 22.58C174.92 21.52 175.2 20.56 175.76 19.7C176.32 18.82 177.18 18.12 178.34 17.6C179.5 17.08 180.94 16.82 182.66 16.82C183.86 16.82 185.03 16.99 186.17 17.33C187.33 17.65 188.33 18.1 189.17 18.68L188.42 20.45C187.54 19.87 186.6 19.44 185.6 19.16C184.6 18.86 183.62 18.71 182.66 18.71C180.82 18.71 179.43 19.07 178.49 19.79C177.57 20.49 177.11 21.4 177.11 22.52C177.11 23.36 177.36 24.04 177.86 24.56C178.38 25.06 179.02 25.45 179.78 25.73C180.56 25.99 181.6 26.28 182.9 26.6C184.44 26.98 185.68 27.36 186.62 27.74C187.58 28.1 188.39 28.66 189.05 29.42C189.71 30.16 190.04 31.17 190.04 32.45C190.04 33.51 189.75 34.48 189.17 35.36C188.61 36.22 187.74 36.91 186.56 37.43C185.38 37.93 183.93 38.18 182.21 38.18ZM199.947 22.1C202.007 22.1 203.587 22.62 204.687 23.66C205.787 24.68 206.337 26.2 206.337 28.22V38H204.297V35.54C203.817 36.36 203.107 37 202.167 37.46C201.247 37.92 200.147 38.15 198.867 38.15C197.107 38.15 195.707 37.73 194.667 36.89C193.627 36.05 193.107 34.94 193.107 33.56C193.107 32.22 193.587 31.14 194.547 30.32C195.527 29.5 197.077 29.09 199.197 29.09H204.207V28.13C204.207 26.77 203.827 25.74 203.067 25.04C202.307 24.32 201.197 23.96 199.737 23.96C198.737 23.96 197.777 24.13 196.857 24.47C195.937 24.79 195.147 25.24 194.487 25.82L193.527 24.23C194.327 23.55 195.287 23.03 196.407 22.67C197.527 22.29 198.707 22.1 199.947 22.1ZM199.197 36.47C200.397 36.47 201.427 36.2 202.287 35.66C203.147 35.1 203.787 34.3 204.207 33.26V30.68H199.257C196.557 30.68 195.207 31.62 195.207 33.5C195.207 34.42 195.557 35.15 196.257 35.69C196.957 36.21 197.937 36.47 199.197 36.47ZM220.162 22.1C222.142 22.1 223.712 22.68 224.872 23.84C226.052 24.98 226.642 26.65 226.642 28.85V38H224.512V29.06C224.512 27.42 224.102 26.17 223.282 25.31C222.462 24.45 221.292 24.02 219.772 24.02C218.072 24.02 216.722 24.53 215.722 25.55C214.742 26.55 214.252 27.94 214.252 29.72V38H212.122V22.22H214.162V25.13C214.742 24.17 215.542 23.43 216.562 22.91C217.602 22.37 218.802 22.1 220.162 22.1ZM237.945 22.1C240.005 22.1 241.585 22.62 242.685 23.66C243.785 24.68 244.335 26.2 244.335 28.22V38H242.295V35.54C241.815 36.36 241.105 37 240.165 37.46C239.245 37.92 238.145 38.15 236.865 38.15C235.105 38.15 233.705 37.73 232.665 36.89C231.625 36.05 231.105 34.94 231.105 33.56C231.105 32.22 231.585 31.14 232.545 30.32C233.525 29.5 235.075 29.09 237.195 29.09H242.205V28.13C242.205 26.77 241.825 25.74 241.065 25.04C240.305 24.32 239.195 23.96 237.735 23.96C236.735 23.96 235.775 24.13 234.855 24.47C233.935 24.79 233.145 25.24 232.485 25.82L231.525 24.23C232.325 23.55 233.285 23.03 234.405 22.67C235.525 22.29 236.705 22.1 237.945 22.1ZM237.195 36.47C238.395 36.47 239.425 36.2 240.285 35.66C241.145 35.1 241.785 34.3 242.205 33.26V30.68H237.255C234.555 30.68 233.205 31.62 233.205 33.5C233.205 34.42 233.555 35.15 234.255 35.69C234.955 36.21 235.935 36.47 237.195 36.47ZM254.35 38.15C253.07 38.15 251.84 37.97 250.66 37.61C249.5 37.23 248.59 36.76 247.93 36.2L248.89 34.52C249.55 35.04 250.38 35.47 251.38 35.81C252.38 36.13 253.42 36.29 254.5 36.29C255.94 36.29 257 36.07 257.68 35.63C258.38 35.17 258.73 34.53 258.73 33.71C258.73 33.13 258.54 32.68 258.16 32.36C257.78 32.02 257.3 31.77 256.72 31.61C256.14 31.43 255.37 31.26 254.41 31.1C253.13 30.86 252.1 30.62 251.32 30.38C250.54 30.12 249.87 29.69 249.31 29.09C248.77 28.49 248.5 27.66 248.5 26.6C248.5 25.28 249.05 24.2 250.15 23.36C251.25 22.52 252.78 22.1 254.74 22.1C255.76 22.1 256.78 22.24 257.8 22.52C258.82 22.78 259.66 23.13 260.32 23.57L259.39 25.28C258.09 24.38 256.54 23.93 254.74 23.93C253.38 23.93 252.35 24.17 251.65 24.65C250.97 25.13 250.63 25.76 250.63 26.54C250.63 27.14 250.82 27.62 251.2 27.98C251.6 28.34 252.09 28.61 252.67 28.79C253.25 28.95 254.05 29.12 255.07 29.3C256.33 29.54 257.34 29.78 258.1 30.02C258.86 30.26 259.51 30.67 260.05 31.25C260.59 31.83 260.86 32.63 260.86 33.65C260.86 35.03 260.28 36.13 259.12 36.95C257.98 37.75 256.39 38.15 254.35 38.15Z" fill="black"/>
<path d="M152.5 38.5915C161.06 38.5915 168 32.2543 168 24.4369C168 16.6195 161.06 10.2822 152.5 10.2822C143.94 10.2822 137 16.6195 137 24.4369C137 32.2543 143.94 38.5915 152.5 38.5915Z" fill="#FF9500"/>
<path opacity="0.1" d="M152.5 36.6097C159.862 36.6097 165.83 31.1596 165.83 24.4367C165.83 17.7137 159.862 12.2637 152.5 12.2637C145.138 12.2637 139.17 17.7137 139.17 24.4367C139.17 31.1596 145.138 36.6097 152.5 36.6097Z" fill="white"/>
<path d="M151.861 31.6193V29.8476C150.88 29.8301 149.866 29.5143 149.274 29.0757L149.68 27.9004C150.383 28.3817 151.236 28.6459 152.115 28.6547C153.315 28.6547 154.127 27.9355 154.127 26.9356C154.127 25.9708 153.467 25.3744 152.216 24.8481C150.491 24.1464 149.426 23.3394 149.426 21.8133C149.426 20.3573 150.424 19.2521 151.979 18.989V17.2173H153.028V18.9189C153.81 18.9286 154.572 19.1416 155.226 19.5328L154.803 20.6906C154.176 20.2985 153.433 20.0905 152.673 20.0942C151.371 20.0942 150.88 20.9011 150.88 21.6028C150.88 22.515 151.506 22.9711 152.977 23.6026C154.719 24.3394 155.598 25.2516 155.598 26.8128C155.598 28.1986 154.668 29.4968 152.926 29.7948V31.6193H151.861Z" fill="white"/>
</svg>
