<svg width="142" height="142" viewBox="0 0 142 142" fill="none" xmlns="http://www.w3.org/2000/svg">
<circle cx="71" cy="71" r="69" stroke="#FF9500" stroke-opacity="0.42" stroke-width="4"/>
<path d="M59.3803 72.8C59.7643 72.8 60.0843 72.928 60.3403 73.184C60.5963 73.44 60.7243 73.76 60.7243 74.144C60.7243 74.512 60.5963 74.824 60.3403 75.08C60.0843 75.32 59.7643 75.44 59.3803 75.44H58.3723V78.536C58.3723 78.952 58.2283 79.304 57.9403 79.592C57.6683 79.864 57.3243 80 56.9083 80C56.5083 80 56.1723 79.864 55.9003 79.592C55.6283 79.304 55.4923 78.952 55.4923 78.536V75.44H49.2523C48.9003 75.44 48.5723 75.304 48.2683 75.032C47.9643 74.744 47.8123 74.408 47.8123 74.024C47.8123 73.672 47.9323 73.352 48.1723 73.064L55.7563 63.776C56.0603 63.392 56.4603 63.2 56.9563 63.2C57.3563 63.2 57.6923 63.344 57.9643 63.632C58.2363 63.904 58.3723 64.248 58.3723 64.664V72.8H59.3803ZM55.4923 72.8V68L51.6043 72.8H55.4923ZM72.9165 71.24C73.6685 71.688 74.2525 72.248 74.6685 72.92C75.1005 73.576 75.3165 74.264 75.3165 74.984C75.3165 75.896 75.0605 76.736 74.5485 77.504C74.0525 78.272 73.3725 78.88 72.5085 79.328C71.6605 79.776 70.7245 80 69.7005 80C68.6765 80 67.7325 79.776 66.8685 79.328C66.0205 78.88 65.3405 78.272 64.8285 77.504C64.3325 76.736 64.0845 75.896 64.0845 74.984C64.0845 73.448 64.8605 72.2 66.4125 71.24C65.8525 70.92 65.3885 70.488 65.0205 69.944C64.6685 69.4 64.4925 68.76 64.4925 68.024C64.4925 67.144 64.7245 66.336 65.1885 65.6C65.6525 64.864 66.2765 64.28 67.0605 63.848C67.8605 63.416 68.7405 63.2 69.7005 63.2C70.6605 63.2 71.5325 63.416 72.3165 63.848C73.1165 64.28 73.7405 64.864 74.1885 65.6C74.6525 66.336 74.8845 67.144 74.8845 68.024C74.8845 68.824 74.6925 69.488 74.3085 70.016C73.9405 70.528 73.4765 70.936 72.9165 71.24ZM69.7005 65.84C69.0285 65.84 68.4685 66.056 68.0205 66.488C67.5885 66.904 67.3725 67.432 67.3725 68.072C67.3725 68.728 67.5885 69.272 68.0205 69.704C68.4685 70.12 69.0285 70.328 69.7005 70.328C70.3565 70.328 70.9005 70.112 71.3325 69.68C71.7805 69.248 72.0045 68.712 72.0045 68.072C72.0045 67.432 71.7805 66.904 71.3325 66.488C70.9005 66.056 70.3565 65.84 69.7005 65.84ZM69.7005 77.36C70.4685 77.36 71.1165 77.128 71.6445 76.664C72.1725 76.184 72.4365 75.608 72.4365 74.936C72.4365 74.248 72.1725 73.672 71.6445 73.208C71.1165 72.728 70.4685 72.488 69.7005 72.488C68.9325 72.488 68.2845 72.728 67.7565 73.208C67.2285 73.672 66.9645 74.248 66.9645 74.936C66.9645 75.608 67.2285 76.184 67.7565 76.664C68.2845 77.128 68.9325 77.36 69.7005 77.36ZM81.4099 72.32C80.6579 72.32 79.9779 72.12 79.3699 71.72C78.7779 71.304 78.3139 70.744 77.9779 70.04C77.6419 69.32 77.4739 68.528 77.4739 67.664C77.4739 66.784 77.6419 65.992 77.9779 65.288C78.3139 64.568 78.7779 64.008 79.3699 63.608C79.9619 63.192 80.6419 62.984 81.4099 62.984C82.1779 62.984 82.8579 63.192 83.4499 63.608C84.0419 64.008 84.4979 64.568 84.8179 65.288C85.1539 65.992 85.3219 66.784 85.3219 67.664C85.3219 68.528 85.1459 69.32 84.7939 70.04C84.4579 70.744 83.9859 71.304 83.3779 71.72C82.7859 72.12 82.1299 72.32 81.4099 72.32ZM81.6979 80.048C81.4099 80.048 81.1299 79.936 80.8579 79.712C80.5859 79.488 80.4499 79.208 80.4499 78.872C80.4499 78.664 80.5299 78.424 80.6899 78.152L90.2419 63.728C90.5299 63.344 90.8579 63.152 91.2259 63.152C91.5139 63.152 91.7939 63.264 92.0659 63.488C92.3379 63.712 92.4739 63.992 92.4739 64.328C92.4739 64.536 92.3939 64.776 92.2339 65.048L82.6819 79.472C82.3939 79.856 82.0659 80.048 81.6979 80.048ZM81.4099 70.184C81.8739 70.184 82.2419 69.952 82.5139 69.488C82.7859 69.008 82.9219 68.4 82.9219 67.664C82.9219 66.912 82.7859 66.304 82.5139 65.84C82.2579 65.376 81.8899 65.144 81.4099 65.144C80.9459 65.144 80.5699 65.384 80.2819 65.864C80.0099 66.328 79.8739 66.928 79.8739 67.664C79.8739 68.4 80.0099 69.008 80.2819 69.488C80.5539 69.952 80.9299 70.184 81.4099 70.184ZM91.7059 80.24C90.9859 80.24 90.3219 80.04 89.7139 79.64C89.1219 79.224 88.6499 78.664 88.2979 77.96C87.9459 77.24 87.7699 76.448 87.7699 75.584C87.7699 74.704 87.9379 73.912 88.2739 73.208C88.6099 72.488 89.0739 71.928 89.6659 71.528C90.2579 71.112 90.9379 70.904 91.7059 70.904C92.4739 70.904 93.1539 71.112 93.7459 71.528C94.3379 71.928 94.7939 72.488 95.1139 73.208C95.4499 73.912 95.6179 74.704 95.6179 75.584C95.6179 76.448 95.4419 77.24 95.0899 77.96C94.7539 78.664 94.2819 79.224 93.6739 79.64C93.0819 80.04 92.4259 80.24 91.7059 80.24ZM91.7059 78.104C92.1699 78.104 92.5379 77.872 92.8099 77.408C93.0819 76.928 93.2179 76.32 93.2179 75.584C93.2179 74.832 93.0819 74.224 92.8099 73.76C92.5539 73.296 92.1859 73.064 91.7059 73.064C91.2419 73.064 90.8659 73.304 90.5779 73.784C90.3059 74.248 90.1699 74.848 90.1699 75.584C90.1699 76.32 90.3059 76.928 90.5779 77.408C90.8499 77.872 91.2259 78.104 91.7059 78.104Z" fill="#FF9500"/>
<mask id="mask0" mask-type="alpha" maskUnits="userSpaceOnUse" x="71" y="0" width="71" height="71">
<rect x="71" width="71" height="71" fill="#C4C4C4"/>
</mask>
<g mask="url(#mask0)">
<circle cx="71" cy="71" r="68" stroke="#FF9500" stroke-width="6"/>
</g>
<mask id="mask1" mask-type="alpha" maskUnits="userSpaceOnUse" x="78" y="71" width="64" height="71">
<rect x="142" y="71" width="71" height="63.9" transform="rotate(90 142 71)" fill="#C4C4C4"/>
</mask>
<g mask="url(#mask1)">
<path d="M78.1 139C44.7554 139 17.2 108.861 17.2 71C17.2 33.1395 44.7554 3 78.1 3C111.445 3 139 33.1395 139 71C139 108.861 111.445 139 78.1 139Z" stroke="#FF9500" stroke-width="6"/>
</g>
</svg>
